<?xml version="1.0" encoding="UTF-8"?>
<svg id="Layer_1" data-name="Layer 1" xmlns="http://www.w3.org/2000/svg" viewBox="0 0 251.36 252.06">
  <defs>
    <style>
      .cls-1 {
        fill: #010101;
      }
    </style>
  </defs>
  <path class="cls-1" d="m251.36,126.03C251.36,56.66,195.31.4,126.03.02v-.02h0c-.12,0-.23,0-.35,0-.12,0-.23,0-.35,0h0v.02C56.05.4,0,56.66,0,126.03s56.05,125.63,125.33,126.01v.02h0c.12,0,.23,0,.35,0,.12,0,.23,0,.35,0h0v-.02c69.28-.38,125.33-56.64,125.33-126.01Zm-83.94,74.05l.02.03h-.05s.02-.02.04-.03l-18.44-33.76c9.53-6.79,13.28-24.26,13.28-37.08,0-18.01-14.64-30.41-36.23-30.72v-.03c-.12,0-.23.01-.35.01-.12,0-.23-.01-.35-.01v.03c-21.59.31-36.23,12.71-36.23,30.72,0,12.81,3.74,30.29,13.27,37.08l-18.42,33.76s.02.02.04.03h-.05l.02-.03c-20.95-12.83-32.89-43.6-32.89-72.71,0-45.18,30.41-75.81,74.63-76.16,44.22.35,74.63,30.99,74.63,76.16,0,29.11-11.94,59.88-32.89,72.71Z"/>
</svg>