<?xml version="1.0" encoding="UTF-8"?>
<svg id="Layer_1" data-name="Layer 1" xmlns="http://www.w3.org/2000/svg" viewBox="0 0 387.43 74.85">
  <path d="m29.61,58.42C10.59,58.42,0,44.38,0,29.32S10.88,0,31.19,0c9.94,0,19.16,3.39,25.93,10.09-.58,3.6-2.81,6.77-6.84,6.77-3.75,0-5.48-2.81-7.06-5.91-2.31-4.03-5.98-9.15-12.03-9.15-9.44,0-15.27,10.52-15.27,22.84,0,17.72,10.16,26.87,21.25,26.87,9.73,0,18.37-7.06,20.17-19.23h1.51c-2.02,17.51-15.63,26.15-29.25,26.15Z"/>
  <path d="m84.91,58.35c-10.81,0-21.76-6.56-21.76-20.03s10.95-19.88,21.76-19.88,21.68,6.56,21.68,19.88-10.95,20.03-21.68,20.03Zm-7.2-20.03c0,13.33,2.09,18.23,7.2,18.23s7.28-4.9,7.2-18.23c-.07-13.33-2.16-18.01-7.2-18.01s-7.28,4.75-7.2,18.01Z"/>
  <path d="m137.8,57.06c.43-3.03.58-5.69.58-9.51v-16.5c0-4.75-1.51-6.92-4.47-6.92-2.59,0-5.33,1.95-7.13,5.04v18.37c0,3.82.14,6.48.58,9.51h-14.41c.43-3.03.58-5.69.58-9.51v-18.15c0-3.82-.14-6.48-.58-9.51h14.41c-.29,2.16-.5,4.18-.58,6.7,3.1-4.83,8.64-8.14,14.19-8.14,6.63,0,10.59,4.61,10.59,12.68v16.43c0,3.82.14,6.48.65,9.51h-14.41Z"/>
  <path d="m178.59,58.42c-12.82,0-20.24-9.73-20.24-20.03s7.71-19.96,21.54-19.96c6.63,0,13.04,2.67,17.36,7.49-.72,4.32-2.59,6.12-5.62,6.12-3.67,0-4.97-2.88-6.05-5.69-1.58-4.03-3.31-6.05-6.2-6.05-3.96,0-7.13,5.11-7.13,12.61,0,12.25,6.19,18.8,12.89,18.8,5.19,0,9.94-3.82,11.96-10.16l1.37.29c-2.88,10.16-10.45,16.57-19.88,16.57Z"/>
  <path d="m203.56,57.06c.43-3.03.58-5.69.58-9.51v-18.15c0-3.82-.14-6.48-.58-9.51h14.62c-.43,3.03-.58,5.69-.58,9.51v18.15c0,3.82.14,6.48.58,9.51h-14.62Zm-.36-48.41l7.71-7.42,7.56,7.42-7.56,7.42-7.71-7.42Z"/>
  <path d="m244.79,58.42c-10.45,0-20.17-8-20.17-20.32s10.16-19.67,20.53-19.67c9.65,0,18.66,6.05,18.95,16.71h-25.86c.79,8.28,5.04,16.57,12.9,16.57,5.4,0,10.16-3.82,12.25-10.23l1.3.36c-3.1,11.09-11.31,16.57-19.88,16.57Zm-6.7-26.01v.86h12.25c-.07-9.37-1.73-13.11-5.62-13.11-4.25,0-6.63,4.32-6.63,12.25Z"/>
  <path d="m270.4,57.06c.43-3.03.58-5.69.58-9.51v-18.15c0-3.82-.14-6.48-.58-9.51h14.41c-.43,3.03-.58,5.69-.58,9.51v2.45c3.82-10.09,8.21-13.33,16.43-13.33.72,1.3,1.01,2.59,1.01,3.89,0,3.17-2.31,6.27-6.12,6.27s-8.79,0-11.31,6.05v12.82c0,3.82.14,6.48.58,9.51h-14.41Z"/>
  <path d="m319.96,74.85c-9.44,0-17.94-3.17-17.94-9.29,0-1.22.36-2.45,1.01-3.75-2.02-1.58-3.17-3.96-3.17-6.56,0-4.11,2.81-8.79,9.08-11.81-2.88-2.67-4.47-6.12-4.47-9.94,0-8.28,7.49-15.06,18.51-15.06,1.95,0,3.82.22,5.55.65,1.3-5.91,6.27-10.37,14.62-10.52.5,1.15.72,2.38.72,3.53,0,2.81-1.58,5.19-5.04,5.19-1.87,0-3.1-.5-5.04-.36-1.66.22-2.88.79-3.75,2.52,7.06,2.23,11.45,7.71,11.45,14.05,0,8.21-7.49,14.98-18.51,14.98-5.19,0-9.58-1.51-12.82-3.96-2.74,1.51-4.03,3.67-4.03,5.62,0,2.52,2.23,4.75,6.41,4.75,5.62,0,13.04-3.96,20.6-3.96,8.14,0,12.32,4.03,12.32,9.29,0,9.44-13.54,14.62-25.5,14.62Zm-15.92-10.23c0,4.18,5.04,6.92,11.96,6.92s13.83-2.88,13.83-7.42c0-1.95-1.37-3.46-4.39-3.46-4.32,0-10.09,3.24-15.56,3.24-2.16,0-3.96-.43-5.48-1.22-.22.65-.36,1.3-.36,1.95Zm12.97-31.19c0,7.78,1.8,13.11,5.98,13.11s6.05-5.33,6.05-13.04-1.87-13.11-6.05-13.11-5.98,5.26-5.98,13.04Z"/>
  <path d="m367.55,58.42c-10.45,0-20.17-8-20.17-20.32s10.16-19.67,20.53-19.67c9.65,0,18.66,6.05,18.95,16.71h-25.86c.79,8.28,5.04,16.57,12.9,16.57,5.4,0,10.16-3.82,12.25-10.23l1.3.36c-3.1,11.09-11.31,16.57-19.88,16.57Zm-6.7-26.01v.86h12.25c-.07-9.37-1.73-13.11-5.62-13.11-4.25,0-6.63,4.32-6.63,12.25Z"/>
</svg>